<svg xmlns="http://www.w3.org/2000/svg" viewBox="0 0 198 198">
  <g id="Layer_2" data-name="Layer 2">
    <g id="Layer_12" data-name="Layer 12">
      <g>
        <circle cx="99" cy="99" r="99" fill="#21374f" opacity="0.7"/>
        <path d="M83.09,160.23c-8.67,0-6.31-7.89-6.31-14.19-7.88,1.57-12.61,2.36-16-.79-15.54-15.77-25.79-19.72-20.27-26,4.37-5,9.46-.78,25.23,15,3.16,3.15,11,.79,11,.79a74.07,74.07,0,0,0,.79-9.47C27.11,106.61,53.92,62.45,53.92,62.45c-3.16-7.1,0-21.29,3.94-23.66s15.77-.79,26.81,7.1a75.68,75.68,0,0,1,33.91-.79c5.52-5.52,21-10.27,25.23-7.1,6.31,4.73,3.16,23.66,3.16,23.66,26.81,48.89-22.08,63.87-22.08,63.87,0,28.39,4.73,35.49-5.52,35.49s-6.31-3.16-7.1-31.54c-.08-2.85-4-3.17-2.3-9.28,3.16-11,22.8-4.13,30.69-21.48,8.48-18.66-6.31-32.33-6.31-32.33,3.94-5.52,1.58-16.56,1.58-16.56-6.31,0-12.62,7.1-12.62,7.1-18.93-6.31-42.58,0-42.58,0-4-6.31-15-7.1-15-7.1C63.38,55.35,68.11,64,68.11,64c-27.6,49.68,21.78,42.77,24.14,56.18,1,5.65-2.85,6.12-2.85,8.49C89.4,157.08,91,160.23,83.09,160.23Z" fill="#fff" stroke="#fff" stroke-miterlimit="10"/>
      </g>
    </g>
  </g>
</svg>
