<svg xmlns="http://www.w3.org/2000/svg" viewBox="0 0 184.3 197">
  <g id="Layer_2" data-name="Layer 2">
    <g id="Layer_1-2" data-name="Layer 1">
      <path d="M70.18,195.25c-13.71,0-10-12.46-10-22.43-12.46,2.5-19.94,3.74-25.29-1.24-24.56-24.92-40.76-31.15-32-41.12,6.9-7.89,15-1.25,39.87,23.67,5,5,17.45,1.25,17.45,1.25a117.66,117.66,0,0,0,1.24-14.95C-18.3,110.52,24.07,40.74,24.07,40.74c-5-11.21,0-33.64,6.23-37.38C36.35-.27,55.22,2.11,72.67,14.57a119.57,119.57,0,0,1,53.58-1.24C135,4.6,159.44-2.9,166.12,2.11c10,7.48,5,37.38,5,37.38,42.36,77.26-34.89,100.94-34.89,100.94,0,44.86,7.47,56.07-8.73,56.07s-10-5-11.21-49.84c-.12-4.49-6.39-5-3.63-14.66,5-17.45,36-6.53,48.49-33.94,13.4-29.49-10-51.09-10-51.09,6.23-8.72,2.49-26.17,2.49-26.17-10,0-19.93,11.22-19.93,11.22-29.91-10-67.29,0-67.29,0-6.23-10-23.68-11.22-23.68-11.22C39,29.53,46.5,43.23,46.5,43.23,2.89,121.74,80.91,110.82,84.65,132c1.58,8.93-4.51,9.67-4.51,13.41C80.14,190.27,82.61,195.25,70.18,195.25Z" fill="#7CA3B6" stroke="#7CA3B6" stroke-miterlimit="10"/>
    </g>
  </g>
</svg>
