<svg xmlns="http://www.w3.org/2000/svg" viewBox="0 0 198 198">
  <g id="Layer_2" data-name="Layer 2">
    <g id="Layer_13" data-name="Layer 13">
      <g>
        <circle cx="99" cy="99" r="99" fill="#21374f" opacity="0.7"/>
        <g>
          <path d="M61.83,47.38c0,5.35-3.76,9.78-10,9.78-5.7,0-9.52-4.43-9.51-9.78a9.57,9.57,0,0,1,9.79-9.8C58,37.58,61.79,41.88,61.83,47.38Zm-17.59,103V65.85H60.9v84.57Z" fill="#fff" stroke="#fff" stroke-miterlimit="10"/>
          <path d="M82.05,89.23c0-9-.29-16.2-.71-23.38h7.91l7.47,0-.17,10.26c4.26-8.13,13.33-12.21,27.63-12.21,11.89,0,31.51,7.16,31.51,36.9v49.64H139V102.51c0-14-5.27-22.72-20-22.72-10.33,0-16.39,6.35-19.21,15.16-.65,1.92-1.08,9.71-1.08,12.3v43.17H82.05Z" fill="#fff" stroke="#fff" stroke-miterlimit="10"/>
        </g>
      </g>
    </g>
  </g>
</svg>
