<svg xmlns="http://www.w3.org/2000/svg" viewBox="0 0 171.63 178.22">
  <g id="Layer_2" data-name="Layer 2">
    <g id="Layer_5" data-name="Layer 5">
      <g>
        <path d="M46.85,57.2c0,7.9-5.54,14.43-14.77,14.43-8.4,0-14-6.53-14-14.43A14.1,14.1,0,0,1,32.51,42.75C41.17,42.75,46.79,49.09,46.85,57.2ZM20.91,221V93.29H44V221Z" transform="translate(-18.07 -42.75)" fill="#262d38"/>
        <path d="M81.1,127.78c0-13.33-.44-23.9-1.06-34.49h20.52l1.28,21h.65c6.27-12,21.13-23.9,42.22-23.9,17.54,0,45,10.55,45,54.41V221H166.6V147.35c0-20.63-7.78-37.92-29.51-37.92-15.24,0-27.13,10.83-31.29,23.83A36.22,36.22,0,0,0,104.2,144V221H81.1Z" transform="translate(-18.07 -42.75)" fill="#262d38"/>
      </g>
    </g>
  </g>
</svg>
