<svg xmlns="http://www.w3.org/2000/svg" viewBox="0 0 194 195.94">
  <g id="Layer_2" data-name="Layer 2">
    <g id="Layer_2-2" data-name="Layer 2">
      <g>
        <path d="M147.23,102.44c.9-5.37,15.87-5.29,17.19,0,2,8.11,0,84.6-6.61,89.89C152,197,9.75,196.3,4.47,191S-.82,39,4.47,32.38c6-7.44,80.63-4,87.24-1.32,3.47,1.39,3.34,14.19,0,15.86C86.42,49.56,25.62,45.6,23,49.56s-4,119,0,122.94c2.65,2.65,116.33,2.65,119,0C145.91,168.54,145.91,110.37,147.23,102.44Z" fill="#7CA3B6" stroke="#7CA3B6" stroke-miterlimit="10"/>
        <path d="M64,115.66c-5.29,5.29,8.17,18.87,13.22,14.54,9.25-7.93,97-97.77,97-97.77s.3,30.44,2.14,39.61c1.32,6.61,17.18,6.61,17.18-2.65,0-11.73,0-59.42-5.29-64.77s-56.84-4-66.09-4c-7.94,0-7.94,17.19-1.33,17.19,8,0,38.34,1.32,38.34,1.32S71.25,108.36,64,115.66Z" fill="#7CA3B6" stroke="#7CA3B6" stroke-miterlimit="10"/>
      </g>
    </g>
  </g>
</svg>
