<svg xmlns="http://www.w3.org/2000/svg" viewBox="0 0 198 198">
  <g id="Layer_2" data-name="Layer 2">
    <g id="Layer_11" data-name="Layer 11">
      <g>
        <circle cx="99" cy="99" r="99" fill="#21374f" opacity="0.7"/>
        <g>
          <polyline points="108.1 103.52 154.73 144.76 161.75 134.31 118.28 95.16" fill="#fff"/>
          <polyline points="79.83 94.33 36.81 134.1 43.81 144.55 89.16 103.53" fill="#fff"/>
          <path d="M154.41,49.83H43.59A9.59,9.59,0,0,0,34,59.42v79.16a9.59,9.59,0,0,0,9.59,9.59H154.41a9.59,9.59,0,0,0,9.59-9.59V59.42A9.59,9.59,0,0,0,154.41,49.83ZM152,129.6c0,3.58-2.14,6.32-5.71,6.32H51.74c-3.57,0-5.71-2.74-5.71-6.32V68.4c0-3.58,2.14-6.32,5.71-6.32h94.52c3.57,0,5.71,2.74,5.71,6.32Z" fill="#fff"/>
          <path d="M109.09,90.56C101,97,97,97,88.15,89.6L45.88,52.92,35.53,60l52,45.39c8.48,6.62,14.5,6.62,23.22,0L162.47,60l-10.33-7.09Z" fill="#fff"/>
        </g>
      </g>
    </g>
  </g>
</svg>
