<svg xmlns="http://www.w3.org/2000/svg" viewBox="0 0 190 190">
  <g id="Layer_2" data-name="Layer 2">
    <g id="Layer_4" data-name="Layer 4">
      <g>
        <path d="M70.09,50.61c3.88-6.78,54,33,54,46,0,10-51.5,48.63-56,43C64.09,134.61,66.09,57.61,70.09,50.61Z" fill="#262d38" stroke="#262d38" stroke-miterlimit="10"/>
        <path d="M.5,7.11V182.89a6.61,6.61,0,0,0,6.61,6.61H182.89a6.61,6.61,0,0,0,6.61-6.61V7.11A6.61,6.61,0,0,0,182.89.5H7.11A6.61,6.61,0,0,0,.5,7.11ZM164.89,171.5H25.11a6.61,6.61,0,0,1-6.61-6.61V25.11a6.61,6.61,0,0,1,6.61-6.61H164.89a6.61,6.61,0,0,1,6.61,6.61V164.89A6.61,6.61,0,0,1,164.89,171.5Z" fill="#262d38" stroke="#262d38" stroke-miterlimit="10"/>
      </g>
    </g>
  </g>
</svg>
